<?xml version="1.0" encoding="UTF-8" standalone="no"?>
<!-- Created with Inkscape (http://www.inkscape.org/) -->

<svg
   width="92.879524mm"
   height="31.432041mm"
   viewBox="0 0 92.879524 31.432041"
   version="1.1"
   id="svg5"
   xmlns="http://www.w3.org/2000/svg"
   xmlns:svg="http://www.w3.org/2000/svg">
  <defs
     id="defs2" />
  <g
     id="layer1"
     transform="translate(-119.16822,-357.71169)">
    <path
       d="m 160.05711,388.57334 c 0.72761,-0.23169 1.60922,-0.57025 1.95914,-0.75234 1.24636,-0.64857 1.34815,-1.41766 1.34815,-10.18559 0,-6.9497 -0.0607,-8.23841 -0.41187,-8.73974 -0.38613,-0.55126 -0.60744,-0.58803 -3.53948,-0.58803 -2.58602,0 -3.19048,0.0757 -3.49073,0.43738 -0.28167,0.33927 -0.38026,1.92627 -0.4395,7.07461 -0.042,3.65049 -0.18048,6.74132 -0.30772,6.86856 -0.47792,0.47792 -2.6216,0.52123 -3.31489,0.067 l -0.66664,-0.4368 v -6.41731 c 0,-5.37996 -0.0666,-6.51238 -0.41188,-7.00535 -0.38542,-0.55028 -0.60926,-0.58806 -3.48489,-0.58806 -2.48818,0 -3.1651,0.0833 -3.55687,0.43791 -0.44703,0.40455 -0.48362,1.00362 -0.48071,7.87133 0.004,9.38567 0.25575,10.5633 2.50977,11.73816 1.43684,0.74893 2.32483,0.83415 7.67354,0.73631 3.88695,-0.0711 5.64284,-0.20857 6.61458,-0.518 z m 22.65718,0.003 c 1.5533,-0.57396 3.27064,-2.03549 3.94499,-3.35732 1.6069,-3.14976 1.73,-10.3228 0.23524,-13.70714 -1.25128,-2.8331 -3.41852,-3.92485 -7.24891,-3.6517 -1.1693,0.0834 -2.56866,0.3374 -3.10969,0.56446 -0.54103,0.22707 -1.07681,0.41278 -1.19062,0.41273 -0.11382,-8e-5 -0.1856,-2.05391 -0.15952,-4.56409 0.0625,-6.01073 0.2253,-5.75723 -3.69154,-5.74614 -2.22968,0.006 -3.10242,0.10811 -3.49963,0.40814 -0.51465,0.38876 -0.53131,0.75676 -0.60744,13.41919 -0.0431,7.16071 -0.009,13.37665 0.0749,13.81321 0.25737,1.33387 0.98297,1.92278 3.07987,2.49971 1.68245,0.46288 2.56897,0.52466 6.44853,0.44931 3.42276,-0.0665 4.79095,-0.19563 5.72384,-0.54036 z m -7.29509,-5.90124 c -0.095,-0.24747 -0.18174,-2.1227 -0.19283,-4.16719 -0.0198,-3.6526 -0.009,-3.72293 0.60737,-4.04408 0.34514,-0.17976 1.24586,-0.32858 2.0016,-0.33073 2.00907,-0.006 2.19781,0.3706 2.19781,4.38195 0,3.04041 -0.0342,3.24676 -0.64882,3.90988 -0.56134,0.60571 -0.86077,0.70012 -2.22065,0.70012 -1.23549,0 -1.60877,-0.0963 -1.74448,-0.44995 z m -48.92047,5.59427 c 0.27127,-0.371 0.35318,-1.95446 0.35318,-6.82776 0,-7.39783 -0.0265,-7.31245 2.27107,-7.31245 2.27934,0 2.22685,-0.17431 2.22685,7.39481 0,5.68132 0.0566,6.6103 0.42144,6.91306 0.29091,0.24143 1.33576,0.35478 3.37344,0.36595 4.42182,0.0241 4.14489,0.58557 4.13319,-8.37795 -0.0115,-8.80915 -0.26462,-10.29753 -1.97064,-11.58754 -0.78443,-0.59314 -2.71722,-1.04748 -4.48055,-1.05322 -1.81243,-0.006 -4.93302,0.47609 -5.30011,0.81867 -0.13825,0.12898 -0.34661,0.23455 -0.46302,0.23455 -0.11642,0 -0.21167,-2.13638 -0.21167,-4.7475 0,-5.82006 0.17396,-5.57125 -3.89533,-5.57125 -4.18427,0 -3.77759,-1.65047 -3.77759,15.33083 v 14.2725 l 0.57588,0.40336 c 0.88877,0.62251 6.25028,0.41894 6.74386,-0.25606 z m 83.16776,-4.92906 v -5.2792 l -0.59532,0.0845 c -0.59051,0.0839 -0.59589,0.12501 -0.6675,5.10349 -0.0397,2.76043 -0.0172,5.16218 0.05,5.33728 0.0678,0.17658 0.36499,0.25482 0.66751,0.17571 0.52776,-0.13801 0.54535,-0.31289 0.54535,-5.42181 z m -2.70639,-0.0169 0.0717,-5.22552 h -1.06393 c -1.97035,0.0509 -1.71232,10.66892 -0.0717,10.53317 l 0.99219,-0.0821 z m 1.11889,0.0661 c 0,-4.52731 -0.0573,-5.29167 -0.39688,-5.29167 -0.33955,0 -0.39687,0.76436 -0.39687,5.29167 0,4.52731 0.0573,5.29167 0.39687,5.29167 0.33955,0 0.39688,-0.76436 0.39688,-5.29167 z m 3.96875,0 v -5.29167 h -1.05834 -1.05833 v 5.29167 5.29167 h 1.05833 1.05834 z"
       style="fill:#ffffff;fill-opacity:1;stroke-width:0.0700042"
       id="path1214" />
    <path
       d="m 208.33916,375.82017 c 1.62617,-0.7693 2.55248,-1.92868 3.16374,-3.95975 0.49633,-1.64918 0.49531,-7.5292 -0.002,-8.92188 -1.00995,-2.83089 -2.55544,-3.77767 -6.10204,-3.73817 -2.59686,0.0289 -3.71534,0.37806 -4.95409,1.54649 -0.80247,0.75692 -0.98584,1.14266 -1.14364,2.40565 -0.4465,3.57362 0.18053,5.73913 1.93364,6.678 0.97231,0.52073 4.2637,0.5738 5.18099,0.0836 0.89751,-0.47966 0.98924,-0.36523 0.70774,0.88289 -0.38685,1.71524 -0.71544,1.87359 -3.88779,1.87359 -2.74498,0 -2.80857,0.0138 -3.06095,0.66146 -0.39562,1.01534 -0.27201,2.46787 0.24199,2.84374 0.29994,0.21929 1.46975,0.33126 3.46156,0.33126 2.6895,0 3.16248,-0.0728 4.46039,-0.68686 z m -3.80032,-9.28954 c -0.32774,-0.0631 -0.70119,-0.31478 -0.82988,-0.55928 -0.30237,-0.57449 -0.30034,-1.90601 0.004,-2.48367 0.3577,-0.67942 1.9447,-0.89077 2.74606,-0.36568 0.55832,0.36581 0.66029,0.63698 0.66029,1.75599 0,1.1771 -0.075,1.35188 -0.67869,1.58141 -0.69457,0.26405 -0.86658,0.27051 -1.90158,0.0712 z m -7.79954,3.51284 c 0.0549,-4.67685 -0.006,-6.11547 -0.26458,-6.2798 -0.39298,-0.24943 -3.40782,-0.29493 -4.01835,-0.0607 -0.36464,0.13994 -0.41851,0.93462 -0.41851,6.17363 0,3.30716 0.0838,6.09679 0.18622,6.19921 0.10241,0.10242 1.14421,0.15203 2.3151,0.11026 l 2.12889,-0.076 z m -0.54697,-8.40332 c 0.90206,-0.84744 0.855,-2.62755 -0.0891,-3.37019 -0.99536,-0.78295 -2.57877,-0.73609 -3.41593,0.10107 -1.16626,1.16626 -0.70079,3.63538 0.74196,3.93573 0.99427,0.20701 2.12302,-0.0653 2.76308,-0.66661 z"
       style="fill:#f1cc00;fill-opacity:1;stroke-width:0.0185219"
       id="path2988" />
    <path
       d="m 195.66638,388.36943 c 0.22177,-0.57793 0.22061,-9.97251 -0.001,-9.98527 -0.11385,-0.007 -0.9809,-0.0363 -1.92678,-0.0661 l -1.7198,-0.0543 -0.0717,5.22552 -0.0717,5.22552 h 1.82936 c 1.26085,0 1.87057,-0.10734 1.96192,-0.34538 z m 2.50935,-4.88013 -0.0717,-5.22552 h -0.91085 -0.91084 l 0.051,5.02708 c 0.0281,2.7649 0.051,5.11638 0.051,5.22552 -4e-5,0.10914 0.41917,0.19844 0.93157,0.19844 h 0.93163 z m 1.5875,0 c -0.0609,-4.43664 -0.13165,-5.22552 -0.46861,-5.22552 -0.33696,0 -0.4077,0.78888 -0.46861,5.22552 -0.0701,5.1086 -0.0597,5.22552 0.46861,5.22552 0.52827,0 0.53875,-0.11692 0.46861,-5.22552 z m 4.29405,0 1.7e-4,-5.22552 -1.78611,0.0456 -1.78609,0.0456 -0.0717,5.17991 -0.0717,5.1799 h 1.85767 1.85769 z m 0.52897,-5.35781 v 5.30764 5.30763"
       style="fill:#f1cc00;fill-opacity:1;stroke-width:0.0185219"
       id="path7310" />
  </g>
</svg>
