<?xml version="1.0" encoding="UTF-8" standalone="no"?>
<!-- Created with Inkscape (http://www.inkscape.org/) -->

<svg
   width="92.05542mm"
   height="35.918602mm"
   viewBox="0 0 92.05542 35.918602"
   version="1.1"
   id="svg5"
   inkscape:version="1.1.2 (b8e25be833, 2022-02-05)"
   sodipodi:docname="logotipo_branco.svg"
   xmlns:inkscape="http://www.inkscape.org/namespaces/inkscape"
   xmlns:sodipodi="http://sodipodi.sourceforge.net/DTD/sodipodi-0.dtd"
   xmlns="http://www.w3.org/2000/svg"
   xmlns:svg="http://www.w3.org/2000/svg">
  <sodipodi:namedview
     id="namedview7"
     pagecolor="#ffffff"
     bordercolor="#666666"
     borderopacity="1.0"
     inkscape:pageshadow="2"
     inkscape:pageopacity="0.0"
     inkscape:pagecheckerboard="0"
     inkscape:document-units="mm"
     showgrid="false"
     fit-margin-top="0"
     fit-margin-left="0"
     fit-margin-right="0"
     fit-margin-bottom="0"
     inkscape:zoom="2.0359278"
     inkscape:cx="251.23681"
     inkscape:cy="148.08973"
     inkscape:window-width="1920"
     inkscape:window-height="1001"
     inkscape:window-x="-9"
     inkscape:window-y="-9"
     inkscape:window-maximized="1"
     inkscape:current-layer="layer1" />
  <defs
     id="defs2">
    <clipPath
       clipPathUnits="userSpaceOnUse"
       id="clipPath1096">
      <path
         d="M 0,0 H 1562.5 V 1593.75 H 0 Z"
         clip-rule="evenodd"
         id="path1094" />
    </clipPath>
    <clipPath
       clipPathUnits="userSpaceOnUse"
       id="clipPath1108">
      <path
         d="M 0,0 H 1562.5 V 1562.5 H 0 Z"
         clip-rule="evenodd"
         id="path1106" />
    </clipPath>
    <clipPath
       clipPathUnits="userSpaceOnUse"
       id="clipPath1120">
      <path
         d="M 0,0 H 1562.5 V 1562.5 H 0 Z"
         clip-rule="evenodd"
         id="path1118" />
    </clipPath>
    <clipPath
       clipPathUnits="userSpaceOnUse"
       id="clipPath1132">
      <path
         d="M 49.083771,73.625656 H 474.08377 V 498.62566 H 49.083771 Z"
         clip-rule="evenodd"
         id="path1130" />
    </clipPath>
    <clipPath
       clipPathUnits="userSpaceOnUse"
       id="clipPath1158">
      <path
         d="M 49.083771,568.96271 H 474.08377 v 425 H 49.083771 Z"
         clip-rule="evenodd"
         id="path1156" />
    </clipPath>
    <clipPath
       clipPathUnits="userSpaceOnUse"
       id="clipPath1184">
      <path
         d="M 0,0 H 1562.5 V 1562.5 H 0 Z"
         clip-rule="evenodd"
         id="path1182" />
    </clipPath>
    <clipPath
       clipPathUnits="userSpaceOnUse"
       id="clipPath1216">
      <path
         d="M 49.083771,1065.4124 H 474.08377 v 425 H 49.083771 Z"
         clip-rule="evenodd"
         id="path1214" />
    </clipPath>
    <clipPath
       clipPathUnits="userSpaceOnUse"
       id="clipPath1242">
      <path
         d="M 0,0 H 1562.5 V 1562.5 H 0 Z"
         clip-rule="evenodd"
         id="path1240" />
    </clipPath>
  </defs>
  <g
     inkscape:label="Camada 1"
     inkscape:groupmode="layer"
     id="layer1"
     transform="translate(-52.521634,-67.434356)">
    <g
       id="g1090"
       transform="matrix(0.08466666,0,0,0.08466666,229.75145,63.020117)">
      <g
         id="g1092"
         clip-path="url(#clipPath1096)">
        <g
           id="g1098"
           transform="scale(3.125)">
          <path
             d="M 0,0 H 500 V 1520 H 0 Z"
             style="fill:#ffffff;fill-opacity:1;fill-rule:nonzero;stroke:none"
             id="path1100" />
        </g>
      </g>
    </g>
    <g
       id="g1102"
       transform="matrix(0.08466666,0,0,0.08466666,229.75145,63.020117)">
      <g
         id="g1104"
         clip-path="url(#clipPath1108)">
        <g
           id="g1110"
           transform="scale(3.125)">
          <path
             d="M 0,0 H 500 V 500 H 0 Z"
             style="fill:#ffffff;fill-opacity:1;fill-rule:nonzero;stroke:none"
             id="path1112" />
        </g>
      </g>
    </g>
    <g
       id="g1114"
       transform="matrix(0.08466666,0,0,0.08466666,229.75145,63.020117)">
      <g
         id="g1116"
         clip-path="url(#clipPath1120)">
        <g
           id="g1122"
           transform="scale(3.125)">
          <path
             d="M 0,0 H 500 V 500 H 0 Z"
             style="fill:#ffffff;fill-opacity:1;fill-rule:nonzero;stroke:none"
             id="path1124" />
        </g>
      </g>
    </g>
    <g
       id="g1458"
       transform="translate(-181.42015,-1.8193997)">
      <g
         id="g1128"
         clip-path="url(#clipPath1132)"
         transform="matrix(0.08466666,0,0,0.08466666,229.75145,63.020117)">
        <g
           id="g1134"
           transform="matrix(7.575758,0,0,7.575758,34.311035,58.47414)">
          <path
             d="M 41,26.816406 C 42.160156,26.402344 43,25.300781 43,24 43,22.699219 42.160156,21.597656 41,21.183594 v 5.632812"
             style="fill:#fa6d16;fill-opacity:1;fill-rule:nonzero;stroke:none"
             id="path1136" />
          <path
             d="m 45,24 c 0,2.414063 -1.71875,4.433594 -4,4.898438 V 30 c 0,0.550781 -0.449219,1 -1,1 -0.550781,0 -1,-0.449219 -1,-1 V 28.898438 C 36.71875,28.433594 35,26.414063 35,24 c 0,-0.550781 0.449219,-1 1,-1 0.550781,0 1,0.449219 1,1 0,1.300781 0.839844,2.402344 2,2.816406 V 20.898438 C 36.71875,20.433594 35,18.414063 35,16 c 0,-2.414062 1.71875,-4.433594 4,-4.898439 V 10 c 0,-0.5507812 0.449219,-1 1,-1 0.550781,0 1,0.4492188 1,1 v 1.101561 c 2.28125,0.464845 4,2.484377 4,4.898439 0,0.550781 -0.449219,1 -1,1 -0.550781,0 -1,-0.449219 -1,-1 0,-1.300781 -0.839844,-2.402344 -2,-2.816406 v 5.917969 C 43.28125,19.566406 45,21.585938 45,24 Z M 40,6 c -7.71875,0 -14,6.28125 -14,14 0,7.71875 6.28125,14 14,14 7.71875,0 14,-6.28125 14,-14 C 54,12.28125 47.71875,6 40,6"
             style="fill:#fa6d16;fill-opacity:1;fill-rule:nonzero;stroke:none"
             id="path1138" />
          <path
             d="m 37,16 c 0,1.300781 0.839844,2.402344 2,2.816406 V 13.183594 C 37.839844,13.597656 37,14.699219 37,16"
             style="fill:#fa6d16;fill-opacity:1;fill-rule:nonzero;stroke:none"
             id="path1140" />
          <path
             d="M 40,36 C 31.175781,36 24,28.824219 24,20 24,11.175781 31.175781,4 40,4 c 8.824219,0 16,7.175781 16,16 0,8.824219 -7.175781,16 -16,16 z M 40,2 c -9.925781,0 -18,8.074219 -18,18 0,9.925781 8.074219,18 18,18 9.925781,0 18,-8.074219 18,-18 C 58,10.074219 49.925781,2 40,2"
             style="fill:#fa6d16;fill-opacity:1;fill-rule:nonzero;stroke:none"
             id="path1142" />
          <path
             d="M 30.855469,48.027344 C 30.5,48.433594 30.550781,49.085938 30.964844,49.453125 31.34375,49.789063 32.019531,49.75 32.359375,49.347656 L 40.5,39.972656 C 40.332031,39.976563 40.167969,40 40,40 30.175781,40 22.003906,32.875 20.332031,23.523438 c 0,0 -10.8593747,12.511718 -10.8749997,12.53125 -0.3515625,0.40625 -0.296875,1.0625 0.1015625,1.414062 0.40625,0.355469 1.0546872,0.300781 1.4062502,-0.105469 l 3.28125,-3.777343 c 1.09375,-1.242188 2.992187,-1.371094 4.238281,-0.292969 1.195313,1.039062 1.335938,3.027344 0.289063,4.234375 0,0 -8.492188,9.785156 -8.519532,9.816406 -0.3398435,0.394531 -0.3124997,1.066406 0.09375,1.425781 0.417969,0.351563 1.054688,0.3125 1.417969,-0.105468 0,0 8.515625,-9.8125 8.519531,-9.820313 1.070313,-1.230469 3,-1.367187 4.230469,-0.300781 1.230469,1.070312 1.371094,3 0.300781,4.234375 l -3.28125,3.777344 c -0.363281,0.417968 -0.3125,1.054687 0.105469,1.425781 0.394531,0.347656 1.070313,0.277344 1.40625,-0.109375 l 6.558594,-7.554688 c 1.09375,-1.246093 2.988281,-1.375 4.230469,-0.300781 1.253906,1.085938 1.386718,2.992188 0.300781,4.242188 0,0 -3.277344,3.761718 -3.28125,3.769531"
             style="fill:#fa6d16;fill-opacity:1;fill-rule:nonzero;stroke:none"
             id="path1144" />
          <path
             d="m 16.296875,52.601563 c 0,0 -1.96875,2.261718 -1.972656,2.261718 -0.359375,0.417969 -0.308594,1.066407 0.101562,1.425782 0.414063,0.355468 1.046875,0.308593 1.414063,-0.109375 0,0 1.957031,-2.257813 1.964844,-2.265625 0.359375,-0.417969 0.296875,-1.058594 -0.109375,-1.421875 -0.382813,-0.34375 -1.054688,-0.285157 -1.398438,0.109375"
             style="fill:#fa6d16;fill-opacity:1;fill-rule:nonzero;stroke:none"
             id="path1146" />
          <path
             d="m 25.601563,54.078125 c 0,0 -1.949219,2.261719 -1.953125,2.265625 -0.363282,0.417969 -0.3125,1.058594 0.09766,1.421875 0.40625,0.347656 1.046875,0.304688 1.414062,-0.113281 l 1.953125,-2.257813 c 0.363282,-0.417968 0.308594,-1.066406 -0.09766,-1.429687 -0.414062,-0.351563 -1.0625,-0.289063 -1.414062,0.113281"
             style="fill:#fa6d16;fill-opacity:1;fill-rule:nonzero;stroke:none"
             id="path1148" />
          <path
             d="m 4.21875,42.09375 c 0,0 -1.972656,2.269531 -1.976562,2.269531 -0.160157,0.183594 -0.238282,0.421875 -0.238282,0.65625 0,0.28125 0.109375,0.558594 0.332032,0.75 0.421874,0.351563 1.050781,0.335938 1.414062,-0.08984 0,0 1.9726558,-2.261719 1.976562,-2.269532 C 6.085938,43 6.0351558,42.355469 5.625,42 5.2226558,41.648438 4.5664063,41.691406 4.21875,42.09375"
             style="fill:#fa6d16;fill-opacity:1;fill-rule:nonzero;stroke:none"
             id="path1150" />
        </g>
      </g>
      <g
         id="g1186"
         transform="matrix(0.26458331,0,0,0.26458331,269.85452,67.666835)">
        <g
           aria-label="AXE"
           transform="translate(5.5,63)"
           id="text1190"
           style="font-size:59.97px;font-family:Alatsi;-inkscape-font-specification:Alatsi-Regular;fill:#ffffff">
          <path
             d="m 20.497559,-37.891202 -8.02333,21.756695 h 16.075942 z m -3.338174,-5.827163 h 6.70563 L 40.526602,0 H 34.377335 L 30.394952,-11.215093 H 10.688013 L 6.70563,0 H 0.46851563 Z"
             id="path866" />
          <path
             d="m 37.779803,-43.718365 h 6.354243 l 10.863707,16.251636 10.92227,-16.251636 h 6.354244 L 58.218797,-22.723008 73.211298,0 H 66.857055 L 54.558519,-18.594214 42.172137,0 h -6.383526 l 15.607428,-23.337935 z"
             id="path868" />
          <path
             d="m 73.890519,-43.718365 h 27.642421 v 4.977978 H 79.805529 v 12.942745 h 20.819661 v 4.977978 H 79.805529 V -4.9779786 H 102.06002 V 0 H 73.890519 Z"
             id="path870" />
        </g>
      </g>
      <g
         id="g1192"
         transform="matrix(0.26458331,0,0,0.26458331,297.33335,67.666835)">
        <g
           aria-label="PAY"
           transform="translate(4.78125,63)"
           id="text1196"
           style="font-size:59.97px;font-family:Alatsi;-inkscape-font-specification:Alatsi-Regular;fill:#fa6d16">
          <path
             d="m 11.800738,-38.857515 v 16.427329 h 7.437685 q 4.128794,0 6.383526,-2.137603 2.254731,-2.137602 2.254731,-6.090703 0,-3.923818 -2.254731,-6.061421 -2.254732,-2.137602 -6.383526,-2.137602 z m -5.9150103,-4.86085 H 19.238423 q 7.349839,0 11.097964,3.338174 3.777408,3.308891 3.777408,9.721699 0,6.471372 -3.777408,9.780264 -3.748125,3.308892 -11.097964,3.308892 H 11.800738 V 0 H 5.8857277 Z"
             id="path873" />
          <path
             d="m 53.300568,-37.891202 -8.02333,21.756695 h 16.075943 z m -3.338174,-5.827163 h 6.70563 L 73.329611,0 H 67.180344 L 63.197961,-11.215093 H 43.491022 L 39.508639,0 h -6.237114 z"
             id="path875" />
          <path
             d="m 66.688276,-43.718365 h 6.354243 l 12.122842,17.979287 12.034995,-17.979287 H 103.5546 L 88.093584,-20.819664 V 0 h -5.944292 v -20.819664 z"
             id="path877" />
        </g>
      </g>
    </g>
  </g>
</svg>
